{"title":"Robot.&amp;.Frank.2012.DVDRip.AC3.5.1.XviD-DEYA","uid":8080509,"size":1599186659,"categoryP":"video","categoryS":"movies","magnet":"?xt=urn:btih:66a24052cf9ab55e8e7a42c61bb51854e541231f&amp;dn=Robot.%26amp%3B.Frank.2012.DVDRip.AC3.5.1.XviD-DEYA&amp;tr=udp%3A%2F%2Ftracker.openbittorrent.com%3A80&amp;tr=udp%3A%2F%2Fopen.demonii.com%3A1337&amp;tr=udp%3A%2F%2Ftracker.coppersurfer.tk%3A6969&amp;tr=udp%3A%2F%2Fexodus.desync.com%3A6969","seeders":1,"leechers":1,"uploader":"SaM","files":3,"time":1359485954,"description":"TiTLE: Robot.&amp;.Frank.2012.DVDRip.AC3.5.1.XviD-DEYA\n &lt;a href=&quot;\nhttp://www.imdb.com/title/tt1990314/&quot; rel=&quot;nofollow&quot; target=&quot;_NEW&quot;&gt;\nhttp://www.imdb.com/title/tt1990314/&lt;/a&gt;\n\nGeneral\nComplete name : C:UsersBakerDesktopRobot.&amp;.Frank.2012.DVDRip.AC3.5.1.XviD-DEYA\nFormat : AVI\nFormat/Info : Audio Video Interleave\nFile size : 1.48 GiB\nDuration : 1h 25mn\nOverall bit rate : 2 484 Kbps\nWriting library : VirtualDub-MPEG2 build 24586/release\n\nVideo\nID : 0\nFormat : MPEG-4 Visual\nFormat profile : Advanced Simple@L5\nFormat settings, BVOP : 2\nFormat settings, QPel : No\nFormat settings, GMC : No warppoints\nFormat settings, Matrix : Default (H.263)\nMuxing mode : Packed bitstream\nCodec ID : XVID\nCodec ID/Hint : XviD\nDuration : 1h 25mn\nBit rate : 2 026 Kbps\nWidth : 720 pixels\nHeight : 304 pixels\nDisplay aspect ratio : 2.35:1\nFrame rate : 25.000 fps\nColor space : YUV\nChroma subsampling : 4:2:0\nBit depth : 8 bits\nScan type : Progressive\nCompression mode : Lossy\nBits/(Pixel*Frame) : 0.370\nStream size : 1.21 GiB (82%)\nWriting library : XviD 64\n\nAudio\nID : 1\nFormat : AC-3\nFormat/Info : Audio Coding 3\nMode extension : CM (complete main)\nFormat settings, Endianness : Big\nCodec ID : 2000\nDuration : 1h 25mn\nBit rate mode : Constant\nBit rate : 448 Kbps\nChannel(s) : 6 channels\nChannel positions : Front: L C R, Side: L R, LFE\nSampling rate : 48.0 KHz\nBit depth : 16 bits\nCompression mode : Lossy\nStream size : 273 MiB (18%)\nAlignment : Aligned on interleaves\nInterleave, duration : 40 ms (1.00 video frame)\nInterleave, preload duration : 512 ms\n\nSOURCE: DVD9\n\nNOTES: Tweaked Enjoy! ;)\n\nSCREENiES:\n &lt;a href=&quot;\nhttp://img855.imageshack.us/img855/5530/88099250.png&quot; rel=&quot;nofollow&quot; target=&quot;_NEW&quot;&gt;\nhttp://img855.imageshack.us/img855/5530/88099250.png&lt;/a&gt;\n &lt;a href=&quot;\nhttp://img849.imageshack.us/img849/6626/40478100.png&quot; rel=&quot;nofollow&quot; target=&quot;_NEW&quot;&gt;\nhttp://img849.imageshack.us/img849/6626/40478100.png&lt;/a&gt;\n &lt;a href=&quot;\nhttp://img607.imageshack.us/img607/330/61727475.png&quot; rel=&quot;nofollow&quot; target=&quot;_NEW&quot;&gt;\nhttp://img607.imageshack.us/img607/330/61727475.png&lt;/a&gt;\n &lt;a href=&quot;\nhttp://img585.imageshack.us/img585/8208/78236143.png&quot; rel=&quot;nofollow&quot; target=&quot;_NEW&quot;&gt;\nhttp://img585.imageshack.us/img585/8208/78236143.png&lt;/a&gt;\n &lt;a href=&quot;\nhttp://img43.imageshack.us/img43/8641/79113993.png&quot; rel=&quot;nofollow&quot; target=&quot;_NEW&quot;&gt;\nhttp://img43.imageshack.us/img43/8641/79113993.png&lt;/a&gt;\n &lt;a href=&quot;\nhttp://img33.imageshack.us/img33/2374/50697374.png&quot; rel=&quot;nofollow&quot; target=&quot;_NEW&quot;&gt;\nhttp://img33.imageshack.us/img33/2374/50697374.png&lt;/a&gt;\n\nGreeTz: OURSELVES &amp; ET ;)","torrent":{"xt":"urn:btih:66a24052cf9ab55e8e7a42c61bb51854e541231f","amp;dn":"Robot.%26amp%3B.Frank.2012.DVDRip.AC3.5.1.XviD-DEYA","amp;tr":["udp%3A%2F%2Ftracker.openbittorrent.com%3A80","udp%3A%2F%2Fopen.demonii.com%3A1337","udp%3A%2F%2Ftracker.coppersurfer.tk%3A6969","udp%3A%2F%2Fexodus.desync.com%3A6969"],"infoHash":"66a24052cf9ab55e8e7a42c61bb51854e541231f","infoHashBuffer":{"type":"Buffer","data":[102,162,64,82,207,154,181,94,142,122,66,198,27,181,24,84,229,65,35,31]},"announce":[],"urlList":[]}}